# xmcd CD database file generated by OrangeCD 5.2
#
# Track frame offsets:
#	182
#	13685
#	30132
#	48472
#	69747
#	86950
#	105200
#	125160
#	136775
#	149192
#
# Disc length: 2220 seconds
#
# Revision: 4
# Processed by: cddbd v1.5.1PL0 Copyright (c) Steve Scherf et al.
# Submitted via: OrangeCD 5.2
#
DISCID=8b08aa0a
DTITLE=Various Artist - New Country September 1994
DYEAR=1900
DGENRE=Country
TTITLE0=Jon Randell - This Heart
TTITLE1=Radney Foster - Labor Of Love
TTITLE2=Peter Rowan - Faith,Love And devotion
TTITLE3=Jimmy LaFave - The Open Road
TTITLE4=Chinese Brothers - She's A Waitress (And I'm In Love)
TTITLE5=Billy Sprague - Press On
TTITLE6=The Blazers - El Ano Viejo
TTITLE7=Joy Lynn White - Wild Love
TTITLE8=Blood Oranges - Sally
TTITLE9=The Tractors - Baby Likes To Rock It
EXTD=
EXTT0=
EXTT1=
EXTT2=
EXTT3=
EXTT4=
EXTT5=
EXTT6=
EXTT7=
EXTT8=
EXTT9=
PLAYORDER=
